<?xml version="1.0" encoding="UTF-8"?>
<svg xmlns="http://www.w3.org/2000/svg" viewBox="-32 -32 448 576" preserveAspectRatio="xMidYMid meet">
  <path d="M320,160v-64c0-70.7-57.3-128-128-128S64,25.3,64,96v64C28.7,160,0,188.7,0,224v224c0,35.3,28.7,64,64,64h256c35.3,0,64-28.7,64-64v-224c0-35.3-28.7-64-64-64ZM128,96c0-35.3,28.7-64,64-64s64,28.7,64,64v64h-128v-64ZM248.79,409.4c-9.63,10.02-22.54,16.57-38.72,19.65v18.49h-41.32v-17.63c-12.91-1.73-27.84-5.68-44.79-11.85l10.11-38.43c18.49,5.59,31.54,9.15,39.16,10.69,7.61,1.54,14.98,2.31,22.11,2.31,14.25,0,21.38-6.84,21.38-20.52,0-5.2-1.35-9.25-4.05-12.14-2.7-2.89-7.03-5.2-13-6.93l-32.36-9.83c-14.06-4.24-24.76-10.4-32.08-18.49-7.32-8.09-10.98-19.75-10.98-34.97s4.62-26.92,13.87-36.84c9.25-9.92,21.48-16.33,36.7-19.22v-18.49h41.32v17.34c9.83.97,22.73,3.37,38.72,7.22l-8.38,38.72c-25.62-6.16-43.73-9.25-54.33-9.25-6.75,0-12.09,1.73-16.04,5.2-3.95,3.47-5.92,8.48-5.92,15.03,0,4.24,1.4,7.71,4.19,10.4,2.79,2.7,7.27,5.01,13.44,6.94l32.37,9.83c13.68,4.04,24.27,10.26,31.79,18.64,7.51,8.38,11.27,19.99,11.27,34.82,0,16.18-4.82,29.29-14.45,39.3Z"/>
</svg>
